<?xml version="1.0" encoding="UTF-8"?>
<svg width="48" height="48" viewBox="0 0 48 48" fill="none" xmlns="http://www.w3.org/2000/svg">
    <!-- Pin shadow -->
    <ellipse cx="24" cy="44" rx="12" ry="2" fill="#1E293B" fill-opacity="0.15"/>
    
    <!-- Flat style pin body -->
    <rect x="14" y="6" width="20" height="32" rx="10" fill="#4285F4"/>
    <path d="M14 16C14 10.4772 18.4772 6 24 6C29.5228 6 34 10.4772 34 16V16V30L24 40L14 30V16Z" fill="#4285F4"/>
    
    <!-- Inner highlight -->
    <path d="M16 16.5C16 11.8056 19.8056 8 24.5 8C29.1944 8 33 11.8056 33 16.5V28L24.5 36.5L16 28V16.5Z" fill="#5B9DF8"/>
    
    <!-- Traffic indicator -->
    <rect x="19" y="15" width="10" height="16" rx="2" fill="white"/>
    
    <!-- Traffic lights -->
    <circle cx="24" cy="19" r="2.5" fill="#EA4335"/>  <!-- Red -->
    <circle cx="24" cy="23" r="2.5" fill="#FBBC04"/>  <!-- Yellow -->
    <circle cx="24" cy="27" r="2.5" fill="#34A853"/>  <!-- Green -->
</svg> 