<?xml version="1.0" encoding="UTF-8"?>
<svg width="48" height="48" viewBox="0 0 48 48" fill="none" xmlns="http://www.w3.org/2000/svg">
    <!-- Pin shadow -->
    <ellipse cx="24" cy="42" rx="10" ry="3" fill="#1E293B" fill-opacity="0.2"/>
    
    <!-- Main pin body -->
    <path d="M24 6C16.268 6 10 12.268 10 20C10 27.732 24 42 24 42C24 42 38 27.732 38 20C38 12.268 31.732 6 24 6Z" fill="#4285F4"/>
    
    <!-- Badge circle -->
    <circle cx="24" cy="20" r="8" fill="white"/>
    
    <!-- Shield badge -->
    <path d="M24 15L27 17H29V20L31 23L29 26V29H27L24 31L21 29H19V26L17 23L19 20V17H21L24 15Z" fill="#4285F4"/>
    
    <!-- Center dot -->
    <circle cx="24" cy="23" r="3" fill="white"/>
</svg> 