<?xml version="1.0" encoding="UTF-8"?>
<svg width="48" height="48" viewBox="0 0 48 48" fill="none" xmlns="http://www.w3.org/2000/svg">
    <!-- Shadow -->
    <ellipse cx="24" cy="44" rx="10" ry="2" fill="#1E293B" fill-opacity="0.2"/>
    
    <!-- Pin stem -->
    <path d="M22 26L24 42L26 26C26 26 26 28 24 28C22 28 22 26 22 26Z" fill="#4285F4"/>
    
    <!-- Badge/Shield shape -->
    <path d="M24 6L32 10V14C32 21.1797 28.1797 25 24 29C19.8203 25 16 21.1797 16 14V10L24 6Z" fill="#4285F4"/>
    <path d="M24 8L30 11V14C30 19.7487 27.2513 23 24 26C20.7487 23 18 19.7487 18 14V11L24 8Z" fill="#5B9DF8"/>
    
    <!-- Badge interior -->
    <path d="M24 10L28 12V14C28 18.4183 26.4183 20 24 22C21.5817 20 20 18.4183 20 14V12L24 10Z" fill="white"/>
    
    <!-- Badge emblem -->
    <path d="M24 12L26 14V16.5C26 18 25 19 24 19.5C23 19 22 18 22 16.5V14L24 12Z" fill="#4285F4"/>
    
    <!-- Badge star -->
    <path d="M24 13L24.5 14H25.5L24.75 14.5L25 15.5L24 15L23 15.5L23.25 14.5L22.5 14H23.5L24 13Z" fill="white"/>
</svg> 